<?xml version="1.0" encoding="UTF-8" standalone="no"?>
<svg
   version="1.1"
   width="500"
   height="500"
   viewBox="0 0 500 500"
   id="svg12"
   sodipodi:docname="new_logo_1.svg"
   inkscape:version="1.1.2 (0a00cf5339, 2022-02-04)"
   xmlns:inkscape="http://www.inkscape.org/namespaces/inkscape"
   xmlns:sodipodi="http://sodipodi.sourceforge.net/DTD/sodipodi-0.dtd"
   xmlns="http://www.w3.org/2000/svg"
   xmlns:svg="http://www.w3.org/2000/svg">
  <defs
     id="defs16" />
  <sodipodi:namedview
     id="namedview14"
     pagecolor="#505050"
     bordercolor="#eeeeee"
     borderopacity="1"
     inkscape:pageshadow="0"
     inkscape:pageopacity="0"
     inkscape:pagecheckerboard="0"
     showgrid="false"
     inkscape:snap-bbox="true"
     inkscape:snap-smooth-nodes="true"
     inkscape:zoom="1.3514627"
     inkscape:cx="253.42912"
     inkscape:cy="199.78354"
     inkscape:window-width="1536"
     inkscape:window-height="807"
     inkscape:window-x="0"
     inkscape:window-y="25"
     inkscape:window-maximized="0"
     inkscape:current-layer="g27972"
     width="500px"
     showborder="false"
     fit-margin-top="0"
     fit-margin-left="0"
     fit-margin-right="0"
     fit-margin-bottom="0" />
  <g
     id="SVGRepo_bgCarrier"
     stroke-width="0"
     transform="translate(529.40149,435.25604)" />
  <g
     id="SVGRepo_tracerCarrier"
     stroke-linecap="round"
     stroke-linejoin="round"
     transform="translate(529.40149,435.25604)" />
  <circle
     cx="250"
     cy="250"
     fill="#ffffff"
     id="ellipse423"
     style="fill:#0f172a;fill-opacity:1;stroke-width:1.5"
     inkscape:export-filename="/home/abhishek/Documents/logo.png"
     inkscape:export-xdpi="96"
     inkscape:export-ydpi="96"
     r="250" />
  <g
     id="g27972"
     transform="matrix(2.5214067,0,0,2.5214092,-1774.8338,-672.74823)"
     inkscape:export-filename="/home/abhishek/Documents/logo.png"
     inkscape:export-xdpi="96"
     inkscape:export-ydpi="96">
    <path
       d="m 830.17396,363.87716 -55.71898,-38.97413 c -0.77753,-0.54044 -1.78047,-0.6002 -2.61119,-0.1507 -0.82819,0.4495 -1.34739,1.33292 -1.34739,2.29688 v 77.94825 c 0,0.96396 0.5192,1.84737 1.34992,2.29687 0.36977,0.20267 0.77753,0.3014 1.18276,0.3014 0.49894,0 0.99788,-0.15329 1.4259,-0.4521 l 55.71898,-38.97412 c 0.69143,-0.48328 1.10679,-1.28615 1.10679,-2.14618 0,-0.86003 -0.41536,-1.66289 -1.10679,-2.14617 z m -54.6122,36.20176 v -68.11118 l 48.6908,34.05559 z"
       id="path9336"
       style="fill:#ffffff;stroke-width:2.56527" />
    <path
       d="m 850.35671,364.29946 -55.71898,-38.97413 c -0.77753,-0.54044 -1.78047,-0.6002 -2.61119,-0.1507 -0.82819,0.4495 -1.34739,1.33292 -1.34739,2.29688 v 77.94825 c 0,0.96396 0.5192,1.84737 1.34992,2.29687 0.36977,0.20267 0.77753,0.3014 1.18276,0.3014 0.49894,0 0.99788,-0.15329 1.4259,-0.4521 l 55.71898,-38.97412 c 0.69143,-0.48328 1.10679,-1.28615 1.10679,-2.14618 0,-0.86003 -0.41536,-1.66289 -1.10679,-2.14617 z m -54.6122,36.20176 v -68.11118 l 48.6908,34.05559 z"
       id="path27968"
       style="fill:#ffffff;stroke-width:2.56527" />
  </g>
</svg>
